<?xml version="1.0" encoding="UTF-8"?>
<svg version="1.1" xmlns="http://www.w3.org/2000/svg" width="512" height="512">
<path d="M0 0 C13.41817416 10.67155963 23.69853454 25.40820184 25.8125 42.8125 C27.28319142 61.01387758 24.13561232 77.89871753 12.60546875 92.6328125 C10.42202174 95.12499222 8.17183865 97.48710866 5.8125 99.8125 C4.98492187 100.65554687 4.98492187 100.65554687 4.140625 101.515625 C-1.02762189 106.37684732 -9.9800546 112.8125 -17.1875 112.8125 C-17.1875 149.1125 -17.1875 185.4125 -17.1875 222.8125 C-2.585 222.709375 12.0175 222.60625 27.0625 222.5 C33.94657715 222.46265747 33.94657715 222.46265747 40.96972656 222.42456055 C45.12889398 222.38794238 45.12889398 222.38794238 49.2880249 222.3474884 C51.12245885 222.3314715 52.95694789 222.32109415 54.79144287 222.31538391 C71.18653742 222.25765224 85.07397393 221.41424448 97.87890625 209.96484375 C111.76149329 195.36264096 110.2487893 174.554735 110.8125 155.8125 C110.23749756 155.64234375 109.66249512 155.4721875 109.07006836 155.296875 C94.53535801 150.76485378 82.63867239 140.30016377 75.42700195 126.94628906 C67.41918646 111.17968275 64.75176841 93.57656239 69.90625 76.37109375 C75.91846326 59.39695719 86.53247432 45.13246111 102.8125 36.8125 C120.19961413 29.54427096 138.99093896 27.8753792 156.8125 34.8125 C173.30460084 42.24882679 185.9169943 54.61471988 192.75 71.4375 C198.57944388 88.20217653 198.69547572 105.70969491 191.14746094 121.98486328 C183.48914098 137.54654018 172.23063758 149.30411478 155.8125 155.8125 C155.1525 155.8125 154.4925 155.8125 153.8125 155.8125 C153.82821045 156.79420166 153.8439209 157.77590332 153.86010742 158.78735352 C153.91530099 162.50552838 153.94916731 166.22366893 153.97729492 169.94213867 C153.99218159 171.53725312 154.01249768 173.13232817 154.03881836 174.72729492 C154.44875174 200.24765762 147.81432293 221.59499494 130.015625 240.57421875 C114.08575881 256.75828493 93.94415378 265.96059427 71.2487793 266.15307617 C67.12775815 266.16375093 63.00760549 266.13649673 58.88671875 266.10546875 C56.68569734 266.09986338 54.48467215 266.09559774 52.28364563 266.09260559 C46.5313965 266.08123088 40.77937987 266.05182818 35.02722168 266.01849365 C29.14122664 265.98763266 23.2551935 265.9740662 17.36914062 265.95898438 C5.85014259 265.92695055 -5.66862286 265.87424389 -17.1875 265.8125 C-17.1875 274.0625 -17.1875 282.3125 -17.1875 290.8125 C-15.5375 291.1425 -13.8875 291.4725 -12.1875 291.8125 C-3.94110947 295.35933464 2.49194268 300.52550316 8.8125 306.8125 C9.64201172 307.58980469 9.64201172 307.58980469 10.48828125 308.3828125 C21.92873552 320.16247162 26.35574723 337.71625133 26.23046875 353.6015625 C25.69621699 370.430493 18.98657918 385.36198089 7.34765625 397.5 C-6.48428465 410.11711712 -23.05679813 416.47101514 -41.8125 416.05078125 C-59.18458861 414.82427962 -75.39445467 407.20440062 -87.359375 394.5078125 C-99.45525464 380.27469097 -104.31047581 363.27013873 -103.1875 344.8125 C-100.6325215 326.62588136 -92.94045229 311.89578941 -78.94921875 299.859375 C-66.74284351 290.8125 -66.74284351 290.8125 -60.1875 290.8125 C-60.1875 232.0725 -60.1875 173.3325 -60.1875 112.8125 C-61.8375 112.4825 -63.4875 112.1525 -65.1875 111.8125 C-80.50415214 104.63693374 -92.67019318 92.6383191 -98.8203125 76.828125 C-104.65013094 60.51856127 -105.18006001 43.23519492 -98.375 27.0625 C-89.84299854 9.60920423 -77.77504027 -2.42839445 -59.1875 -9.1875 C-38.8380534 -15.22374034 -17.40066837 -12.47304547 0 0 Z " fill="#000000" transform="translate(209.1875,54.1875)"/>
</svg>
