<?xml version="1.0" encoding="UTF-8"?>
<svg version="1.1" xmlns="http://www.w3.org/2000/svg" width="512" height="512">
<path d="M0 0 C1.21790216 -0.00507454 2.43580433 -0.01014909 3.69061261 -0.0153774 C5.04409615 -0.01597906 6.39757974 -0.01647815 7.75106335 -0.01688576 C9.18750651 -0.02090138 10.62394855 -0.02533977 12.06038922 -0.03016531 C16.01294265 -0.04212613 19.96548387 -0.04777816 23.91805184 -0.05234647 C28.1793934 -0.05830466 32.44072039 -0.06991419 36.70205212 -0.08063698 C46.99791059 -0.10515956 57.29377388 -0.11978975 67.58965257 -0.13269705 C70.49887683 -0.13640967 73.40810061 -0.14038286 76.3173244 -0.14444971 C94.3908686 -0.16969152 112.46441356 -0.19174043 130.5379715 -0.20417786 C134.72449592 -0.20710747 138.91102031 -0.21006914 143.09754467 -0.21308327 C144.13806318 -0.21382932 145.17858169 -0.21457537 146.25063106 -0.21534403 C163.09206297 -0.22798729 179.93338906 -0.26119619 196.77477155 -0.3028851 C214.07433115 -0.34535616 231.37383667 -0.36887903 248.67344826 -0.37409842 C258.38282634 -0.37750712 268.09203919 -0.38919808 277.80136585 -0.42220116 C286.07382487 -0.45027422 294.34608477 -0.46116936 302.61858771 -0.4500057 C306.8352128 -0.44483716 311.05142141 -0.44758726 315.26798534 -0.47247124 C319.13807771 -0.49511846 323.0074582 -0.49410575 326.87756433 -0.47526737 C328.92023339 -0.47118544 330.96290784 -0.49149826 333.00546724 -0.51305425 C346.72072825 -0.39673915 358.35563426 3.41808076 369.08362865 12.13701439 C369.90605053 12.75576439 370.7284724 13.37451439 371.57581615 14.01201439 C380.91082345 21.92205172 386.62710787 33.26243182 389.08362865 45.13701439 C389.17763842 47.10742558 389.21627926 49.08073801 389.22064304 51.05338573 C389.22825486 52.88023898 389.22825486 52.88023898 389.23602045 54.74399835 C389.2366221 56.09748189 389.23712119 57.45096547 389.2375288 58.80444908 C389.24154443 60.24089225 389.24598282 61.67733428 389.25080836 63.11377496 C389.26276918 67.06632838 389.2684212 71.0188696 389.27298951 74.97143757 C389.2789477 79.23277913 389.29055724 83.49410612 389.30128002 87.75543785 C389.3258026 98.05129632 389.3404328 108.34715961 389.35334009 118.6430383 C389.35705271 121.55226256 389.36102591 124.46148635 389.36509275 127.37071013 C389.39033456 145.44425433 389.41238347 163.5177993 389.4248209 181.59135723 C389.42775052 185.77788165 389.43071219 189.96440604 389.43372631 194.1509304 C389.43447236 195.19144891 389.43521841 196.23196742 389.43598707 197.30401679 C389.44863033 214.14544871 389.48183923 230.9867748 389.52352814 247.82815728 C389.5659992 265.12771689 389.58952207 282.42722241 389.59474146 299.726834 C389.59815017 309.43621208 389.60984112 319.14542492 389.6428442 328.85475159 C389.67091726 337.1272106 389.6818124 345.39947051 389.67064874 353.67197344 C389.6654802 357.88859853 389.66823031 362.10480715 389.69311428 366.32137108 C389.71576151 370.19146344 389.71474879 374.06084393 389.69591041 377.93095007 C389.69182848 379.97361912 389.7121413 382.01629358 389.7336973 384.05885297 C389.6173822 397.77411399 385.80256228 409.40901999 377.08362865 420.13701439 C376.46101147 420.9684597 375.83839428 421.79990501 375.1969099 422.65654564 C367.02986265 432.24263622 353.45971442 439.3215825 340.88283658 440.41538513 C337.14498908 440.52544622 333.41328573 440.54240679 329.67447948 440.52469444 C328.23071692 440.52887349 326.78695763 440.53435413 325.34320438 440.54101425 C321.39834822 440.55541284 317.45370198 440.55124174 313.5088346 440.54384744 C309.24559927 440.53910416 304.9824086 440.55163587 300.71918774 440.56186485 C292.37584546 440.57903559 284.03257854 440.57989643 275.68922319 440.57465195 C268.90561306 440.57060574 262.12202516 440.57205916 255.3384161 440.57740021 C254.37185924 440.57814863 253.40530238 440.57889705 252.40945592 440.57966815 C250.44571003 440.58119968 248.48196414 440.58273802 246.51821826 440.58428312 C228.11449494 440.59800196 209.71081416 440.59257484 191.30709182 440.58109791 C174.48342366 440.57116654 157.65986551 440.58410564 140.83621432 440.6080321 C123.54663862 440.63243525 106.25711412 440.64202796 88.96752155 440.63537937 C79.26675173 440.63188981 69.56606648 440.63410183 59.86530972 440.6516304 C51.60718627 440.66636759 43.34920695 440.66696801 35.09108628 440.64955949 C30.8809359 440.64105954 26.67104285 440.6388752 22.46090603 440.65421104 C18.60052686 440.66809833 14.74062448 440.66324368 10.88027261 440.64397181 C9.49005902 440.6402238 8.09980687 440.64309894 6.70962776 440.65358346 C-8.20217836 440.75797427 -22.98644687 436.35491324 -34.16637135 426.00810814 C-43.73467 415.77771739 -51.02173402 403.52879661 -51.05338573 389.22064304 C-51.05846028 388.00274088 -51.06353482 386.78483872 -51.06876314 385.53003043 C-51.06936479 384.17654689 -51.06986388 382.82306331 -51.07027149 381.4695797 C-51.07428712 380.03313653 -51.07872551 378.5966945 -51.08355105 377.16025382 C-51.09551187 373.2077004 -51.10116389 369.25515918 -51.1057322 365.3025912 C-51.11169039 361.04124964 -51.12329993 356.77992266 -51.13402271 352.51859093 C-51.15854529 342.22273246 -51.17317549 331.92686916 -51.18608278 321.63099048 C-51.1897954 318.72176621 -51.1937686 315.81254243 -51.19783545 312.90331864 C-51.22307725 294.82977445 -51.24512616 276.75622948 -51.25756359 258.68267155 C-51.26049321 254.49614713 -51.26345488 250.30962273 -51.266469 246.12309837 C-51.26721505 245.08257987 -51.2679611 244.04206136 -51.26872976 242.97001199 C-51.28137302 226.12858007 -51.31458193 209.28725398 -51.35627083 192.44587149 C-51.39874189 175.14631189 -51.42226477 157.84680637 -51.42748415 140.54719478 C-51.43089286 130.8378167 -51.44258381 121.12860385 -51.47558689 111.41927719 C-51.50365995 103.14681818 -51.5145551 94.87455827 -51.50339143 86.60205533 C-51.49822289 82.38543025 -51.500973 78.16922163 -51.52585697 73.9526577 C-51.5485042 70.08256533 -51.54749149 66.21318485 -51.5286531 62.34307871 C-51.52457117 60.30040965 -51.54488399 58.2577352 -51.56643999 56.21517581 C-51.45012489 42.49991479 -47.63530497 30.86500879 -38.91637135 20.13701439 C-38.29762135 19.31459251 -37.67887135 18.49217064 -37.04137135 17.64482689 C-28.04470474 7.02743726 -13.93432645 0.03082475 0 0 Z M43.08362865 97.13701439 C36.74957797 105.55995413 35.09976579 113.68347142 36.08362865 124.13701439 C38.40394334 133.65557802 43.71480334 140.06187727 51.95862865 145.09404564 C59.38834549 148.74061622 67.60456475 149.60700714 75.64612865 147.44951439 C84.20432571 143.88359895 91.06852777 138.60296355 95.08362865 130.13701439 C98.14454969 122.2475982 98.39065872 113.75179631 95.45862865 105.76201439 C91.42289408 97.05555204 85.13582014 91.49340042 76.22425365 88.02373314 C64.07417971 84.59330181 51.55122464 87.71897395 43.08362865 97.13701439 Z M36.08362865 176.13701439 C36.08362865 234.54701439 36.08362865 292.95701439 36.08362865 353.13701439 C56.21362865 353.13701439 76.34362865 353.13701439 97.08362865 353.13701439 C97.08362865 294.72701439 97.08362865 236.31701439 97.08362865 176.13701439 C76.95362865 176.13701439 56.82362865 176.13701439 36.08362865 176.13701439 Z M134.08362865 176.13701439 C134.08362865 234.54701439 134.08362865 292.95701439 134.08362865 353.13701439 C150.91362865 353.13701439 167.74362865 353.13701439 185.08362865 353.13701439 C185.12101147 345.9247097 185.15839428 338.71240501 185.1969099 331.28154564 C185.22721209 326.69232976 185.25837475 322.10315161 185.29261303 317.51396751 C185.34678832 310.24160809 185.39790403 302.96932329 185.4300642 295.69682884 C185.45621412 289.82874353 185.49669844 283.96091107 185.54681492 278.09298325 C185.56340488 275.86251742 185.57496786 273.63200795 185.58124256 271.40148926 C185.68396781 238.21943696 185.68396781 238.21943696 194.6500349 228.42607689 C202.48053781 221.24373641 211.28625622 219.73837627 221.66175365 219.86748314 C228.90279416 220.43783907 234.94028564 222.43306227 240.02112865 227.76201439 C251.10541543 242.21401509 249.40080851 262.34709788 249.49769115 279.60185814 C249.51644148 281.73277058 249.53601763 283.86367591 249.55637646 285.99457359 C249.60729593 291.55265123 249.64713446 297.11075283 249.68451977 302.66893578 C249.73192167 309.36484452 249.79334425 316.0606381 249.85236645 322.75645256 C249.94008758 332.88325898 250.01020284 343.01004886 250.08362865 353.13701439 C267.24362865 353.13701439 284.40362865 353.13701439 302.08362865 353.13701439 C302.17393313 331.98977917 302.17393313 331.98977917 302.23439026 310.8425169 C302.25093376 303.27192323 302.27184562 295.70143007 302.30994701 288.13091087 C302.34337928 281.48487486 302.36053826 274.83891848 302.36826038 268.1927948 C302.37375564 265.67138334 302.38448474 263.14997706 302.40081882 260.62861252 C302.55287169 236.15926752 302.37066172 208.83966184 284.08362865 190.13701439 C267.33981086 175.85834759 244.8815527 174.65000821 223.88001537 176.3113308 C210.11429081 177.8363472 197.10729104 184.0152757 187.5875349 194.05888939 C186.07936694 196.1429033 185.48635066 197.61858382 185.08362865 200.13701439 C184.42362865 200.13701439 183.76362865 200.13701439 183.08362865 200.13701439 C183.08362865 192.21701439 183.08362865 184.29701439 183.08362865 176.13701439 C166.91362865 176.13701439 150.74362865 176.13701439 134.08362865 176.13701439 Z " fill="#000000" transform="translate(86.91637134552002,35.862985610961914)"/>
</svg>
